# xmcd
#
# Track frame offsets:
#	150
#	14980
#	36495
#	59320
#	85235
#	101370
#	123942
#	149667
#	168055
#	186120
#	207130
#	226005
#	240830
#	258755
#
# Disc length: 3761 seconds
#
# Revision: 1
# Processed by: cddbd v1.5.2PL0 Copyright (c) Steve Scherf et al.
# Submitted via: EasyCDDAExtractor 16.0.9.1
#
DISCID=b30eaf0e
DTITLE=童麗 - 極品試音
DYEAR=2007
DGENRE=Vocal
TTITLE0=太湖美
TTITLE1=煙花三月
TTITLE2=葬花吟
TTITLE3=十送紅軍
TTITLE4=失戀追想曲
TTITLE5=月之故鄉
TTITLE6=望春風
TTITLE7=武俠帝女花
TTITLE8=你可佑道我愛誰
TTITLE9=初一到十五
TTITLE10=長相依
TTITLE11=山歌姻緣
TTITLE12=情迷
TTITLE13=春光美
EXTD=
EXTT0=
EXTT1=
EXTT2=
EXTT3=
EXTT4=
EXTT5=
EXTT6=
EXTT7=
EXTT8=
EXTT9=
EXTT10=
EXTT11=
EXTT12=
EXTT13=
PLAYORDER=
